<svg viewBox="0 0 36 36" xmlns="http://www.w3.org/2000/svg">
  <defs>
    <clipPath id="clip">
      <path d="M35 17c0 8.5-12 17-17 17-3.5 0-17-8.5-17-17S8.611 0 18 0s17 7.611 17 17z"/>
    </clipPath>
  </defs>
  <g clip-path="url(#clip)">
    <rect width="36" height="36" fill="#78ef5d"/>
    <path d="M35 17c0 8.5-12 17-17 17-3.5 0-17-8.5-17-17S8.611 0 18 0s17 7.611 17 17z" fill="#5bbdda"/>
    <ellipse cx="11" cy="15" rx="3.5" ry="5" fill="#000" transform="rotate(-30, 11, 15)"/>
    <ellipse cx="25" cy="15" rx="3.5" ry="5" fill="#000" transform="rotate(30, 25, 15)"/>
    <path d="M15,25 Q18,27 21,25" stroke="#000" stroke-width="1.2" stroke-linecap="round" fill="none"/>
  </g>
</svg>
